<?xml version="1.0" standalone="no"?>
<!DOCTYPE svg PUBLIC "-//W3C//DTD SVG 1.1//EN" "http://www.w3.org/Graphics/SVG/1.1/DTD/svg11.dtd" >
<svg>
<metadata>
Created by FontForge 20110222 at Mon Mar  7 13:05:32 2011
 By www-data
Copyright Wesley Clarke 2009
</metadata>
<defs>
<font id="Amstrad-CPC464" horiz-adv-x="1024" >
  <font-face 
    font-family="Amstrad CPC464"
    font-weight="400"
    font-stretch="normal"
    units-per-em="1024"
    panose-1="0 0 4 0 0 0 0 0 0 0"
    ascent="1024"
    descent="0"
    x-height="768"
    cap-height="1024"
    bbox="0 0 1024 1024"
    underline-thickness="51"
    underline-position="127"
    unicode-range="U+0020-201D"
  />
    <missing-glyph />
    <glyph glyph-name="space" unicode=" " 
 />
    <glyph glyph-name="exclam" unicode="!" 
d="M384 128v128h256v-128h-256zM384 384v640h256v-640h-256z" />
    <glyph glyph-name="quotedbl" unicode="&#x22;" 
d="M128 640v384h256v-384h-256zM512 640v384h256v-384h-256z" />
    <glyph glyph-name="numbersign" unicode="#" 
d="M512 512v128h-128v-128h128zM128 128v256h-128v128h128v128h-128v128h128v256h256v-256h128v256h256v-256h128v-128h-128v-128h128v-128h-128v-256h-256v256h-128v-256h-256z" />
    <glyph glyph-name="dollar" unicode="$" 
d="M768 384v128h128v-128h-128zM128 640v128h128v-128h-128zM384 128v128h-256v128h256v128h-128v128h128v128h-128v128h128v128h256v-128h256v-128h-256v-128h128v-128h-128v-128h128v-128h-128v-128h-256z" />
    <glyph glyph-name="percent" unicode="%" 
d="M640 128v256h256v-256h-256zM0 640v256h256v-256h-256zM0 128v128h128v128h128v128h128v128h128v128h128v128h256v-128h-128v-128h-128v-128h-128v-128h-128v-128h-128v-128h-256z" />
    <glyph glyph-name="ampersand" unicode="&#x26;" 
d="M512 768v128h-128v-128h128zM128 128v128h-128v256h128v128h128v128h-128v128h128v128h384v-128h128v-128h-128v-128h-128v-128h128v128h256v-128h-128v-256h128v-128h-256v128h-128v128h-128v128h-128v-256h256v-128h-384z" />
    <glyph glyph-name="quotesingle" unicode="'" 
d="M256 640v128h128v256h256v-256h-128v-128h-256z" />
    <glyph glyph-name="parenleft" unicode="(" 
d="M512 128v128h-128v128h-128v384h128v128h128v128h256v-128h-128v-128h-128v-384h128v-128h128v-128h-256z" />
    <glyph glyph-name="parenright" unicode=")" 
d="M256 128v128h128v128h128v384h-128v128h-128v128h256v-128h128v-128h128v-384h-128v-128h-128v-128h-256z" />
    <glyph glyph-name="asterisk" unicode="*" 
d="M128 256v128h128v128h-256v128h256v128h-128v128h256v-128h256v128h256v-128h-128v-128h256v-128h-256v-128h128v-128h-256v128h-256v-128h-256z" />
    <glyph glyph-name="plus" unicode="+" 
d="M384 256v256h-256v128h256v256h256v-256h256v-128h-256v-256h-256z" />
    <glyph glyph-name="comma" unicode="," 
d="M256 0v128h128v256h256v-256h-128v-128h-256z" />
    <glyph glyph-name="hyphen" unicode="-" 
d="M128 512v128h768v-128h-768z" />
    <glyph glyph-name="period" unicode="." 
d="M384 128v256h256v-256h-256z" />
    <glyph glyph-name="slash" unicode="/" 
d="M0 128v256h128v128h128v128h128v128h128v128h128v128h256v-128h-128v-128h-128v-128h-128v-128h-128v-128h-128v-128h-128v-128h-128z" />
    <glyph glyph-name="zero" unicode="0" 
d="M384 512v128h128v-128h-128zM640 256v384h-128v128h128v128h-384v-384h128v-128h-128v-128h384zM128 128v128h-128v640h128v128h640v-128h128v-640h-128v-128h-640z" />
    <glyph glyph-name="one" unicode="1" 
d="M128 128v128h256v512h-128v128h128v128h256v-768h256v-128h-768z" />
    <glyph glyph-name="two" unicode="2" 
d="M128 128v384h128v128h384v256h-256v-128h-256v128h128v128h512v-128h128v-256h-128v-128h-384v-256h256v128h256v-256h-768z" />
    <glyph glyph-name="three" unicode="3" 
d="M256 128v128h-128v128h256v-128h256v256h-256v128h256v256h-256v-128h-256v128h128v128h512v-128h128v-256h-128v-128h128v-256h-128v-128h-512z" />
    <glyph glyph-name="four" unicode="4" 
d="M512 512v256h-128v-128h-128v-128h256zM384 128v128h128v128h-512v256h128v128h128v128h128v128h384v-512h128v-128h-128v-128h128v-128h-512z" />
    <glyph glyph-name="five" unicode="5" 
d="M256 128v128h-128v128h256v-128h256v256h-512v512h768v-256h-128v128h-384v-256h384v-128h128v-256h-128v-128h-512z" />
    <glyph glyph-name="six" unicode="6" 
d="M640 256v256h-256v-256h256zM256 128v128h-128v640h128v128h512v-128h128v-128h-256v128h-256v-256h384v-128h128v-256h-128v-128h-512z" />
    <glyph glyph-name="seven" unicode="7" 
d="M384 128v384h128v128h128v256h-256v-128h-256v256h768v-384h-128v-128h-128v-384h-256z" />
    <glyph glyph-name="eight" unicode="8" 
d="M640 256v256h-256v-256h256zM640 640v256h-256v-256h256zM256 128v128h-128v256h128v128h-128v256h128v128h512v-128h128v-256h-128v-128h128v-256h-128v-128h-512z" />
    <glyph glyph-name="nine" unicode="9" 
d="M640 640v256h-256v-256h256zM256 128v128h-128v128h256v-128h256v256h-384v128h-128v256h128v128h512v-128h128v-640h-128v-128h-512z" />
    <glyph glyph-name="colon" unicode=":" 
d="M384 128v256h256v-256h-256zM384 512v256h256v-256h-256z" />
    <glyph glyph-name="semicolon" unicode=";" 
d="M256 0v128h128v256h256v-256h-128v-128h-256zM384 512v256h256v-256h-256z" />
    <glyph glyph-name="less" unicode="&#x3c;" 
d="M512 128v128h-128v128h-128v128h-128v128h128v128h128v128h128v128h256v-128h-128v-128h-128v-128h-128v-128h128v-128h128v-128h128v-128h-256z" />
    <glyph glyph-name="equal" unicode="=" 
d="M128 256v128h768v-128h-768zM128 640v128h768v-128h-768z" />
    <glyph glyph-name="greater" unicode="&#x3e;" 
d="M128 128v128h128v128h128v128h128v128h-128v128h-128v128h-128v128h256v-128h128v-128h128v-128h128v-128h-128v-128h-128v-128h-128v-128h-256z" />
    <glyph glyph-name="question" unicode="?" 
d="M384 128v128h256v-128h-256zM384 384v128h128v128h128v256h-256v-256h-256v256h128v128h512v-128h128v-256h-128v-128h-128v-128h-256z" />
    <glyph glyph-name="at" unicode="@" 
d="M128 128v128h-128v640h128v128h640v-128h128v-512h-512v384h256v128h-384v-640h512v-128h-640z" />
    <glyph glyph-name="A" unicode="A" 
d="M640 512v256h-256v-256h256zM128 128v640h128v128h128v128h256v-128h128v-128h128v-640h-256v256h-256v-256h-256z" />
    <glyph glyph-name="B" unicode="B" 
d="M640 256v256h-256v-256h256zM640 640v256h-256v-256h256zM0 128v128h128v640h-128v128h768v-128h128v-256h-128v-128h128v-256h-128v-128h-768z" />
    <glyph glyph-name="C" unicode="C" 
d="M256 128v128h-128v128h-128v384h128v128h128v128h512v-128h128v-128h-256v128h-256v-128h-128v-384h128v-128h256v128h256v-128h-128v-128h-512z" />
    <glyph glyph-name="D" unicode="D" 
d="M512 256v128h128v384h-128v128h-128v-640h128zM0 128v128h128v640h-128v128h640v-128h128v-128h128v-384h-128v-128h-128v-128h-640z" />
    <glyph glyph-name="E" unicode="E" 
d="M0 128v128h128v640h-128v128h896v-256h-128v128h-384v-256h128v128h128v-384h-128v128h-128v-256h384v128h128v-256h-896z" />
    <glyph glyph-name="F" unicode="F" 
d="M0 128v128h128v640h-128v128h896v-256h-128v128h-384v-256h128v128h128v-384h-128v128h-128v-256h128v-128h-512z" />
    <glyph glyph-name="G" unicode="G" 
d="M256 128v128h-128v128h-128v384h128v128h128v128h512v-128h128v-128h-256v128h-256v-128h-128v-384h128v-128h256v128h-128v128h384v-384h-640z" />
    <glyph glyph-name="H" unicode="H" 
d="M128 128v896h256v-384h256v384h256v-896h-256v384h-256v-384h-256z" />
    <glyph glyph-name="I" unicode="I" 
d="M128 128v128h256v640h-256v128h768v-128h-256v-640h256v-128h-768z" />
    <glyph glyph-name="J" unicode="J" 
d="M128 128v128h-128v256h256v-256h256v640h-128v128h512v-128h-128v-640h-128v-128h-512z" />
    <glyph glyph-name="K" unicode="K" 
d="M0 128v128h128v640h-128v128h384v-384h128v128h128v256h256v-256h-128v-128h-128v-128h128v-128h128v-256h-256v256h-128v128h-128v-384h-384z" />
    <glyph glyph-name="L" unicode="L" 
d="M0 128v128h128v640h-128v128h512v-128h-128v-640h256v128h128v128h128v-384h-896z" />
    <glyph glyph-name="M" unicode="M" 
d="M0 128v896h256v-128h128v-128h128v128h128v128h256v-896h-256v384h-128v-128h-128v128h-128v-384h-256z" />
    <glyph glyph-name="N" unicode="N" 
d="M0 128v896h256v-128h128v-128h128v-128h128v384h256v-896h-256v256h-128v128h-128v128h-128v-512h-256z" />
    <glyph glyph-name="O" unicode="O" 
d="M512 256v128h128v384h-128v128h-128v-128h-128v-384h128v-128h128zM256 128v128h-128v128h-128v384h128v128h128v128h384v-128h128v-128h128v-384h-128v-128h-128v-128h-384z" />
    <glyph glyph-name="P" unicode="P" 
d="M640 640v256h-256v-256h256zM0 128v128h128v640h-128v128h768v-128h128v-256h-128v-128h-384v-256h128v-128h-512z" />
    <glyph glyph-name="Q" unicode="Q" 
d="M640 128v128h-128v128h-128v128h256v-128h128v-128h128v-128h-256zM128 128v128h-128v512h128v128h128v128h384v-128h128v-128h128v-384h-128v128h-128v256h-128v128h-128v-128h-128v-512h256v-128h-384z" />
    <glyph glyph-name="R" unicode="R" 
d="M640 640v256h-256v-256h256zM0 128v128h128v640h-128v128h768v-128h128v-256h-128v-256h128v-256h-256v256h-128v128h-128v-384h-384z" />
    <glyph glyph-name="S" unicode="S" 
d="M256 128v128h-128v128h256v-128h256v256h-384v128h-128v256h128v128h512v-128h128v-128h-256v128h-256v-256h384v-128h128v-256h-128v-128h-512z" />
    <glyph glyph-name="T" unicode="T" 
d="M256 128v128h128v640h-128v-128h-128v256h768v-256h-128v128h-128v-640h128v-128h-512z" />
    <glyph glyph-name="U" unicode="U" 
d="M256 128v128h-128v768h256v-768h256v768h256v-768h-128v-128h-512z" />
    <glyph glyph-name="V" unicode="V" 
d="M384 128v128h-128v128h-128v640h256v-640h256v640h256v-640h-128v-128h-128v-128h-256z" />
    <glyph glyph-name="W" unicode="W" 
d="M0 128v896h256v-512h128v128h128v-128h128v512h256v-896h-256v128h-128v128h-128v-128h-128v-128h-256z" />
    <glyph glyph-name="X" unicode="X" 
d="M0 128v256h128v128h128v256h-128v128h-128v128h256v-128h128v-128h128v128h128v128h256v-128h-128v-128h-128v-256h128v-128h128v-256h-256v256h-128v128h-128v-128h-128v-256h-256z" />
    <glyph glyph-name="Y" unicode="Y" 
d="M256 128v128h128v256h-128v128h-128v384h256v-384h256v384h256v-384h-128v-128h-128v-256h128v-128h-512z" />
    <glyph glyph-name="Z" unicode="Z" 
d="M0 128v128h128v128h128v128h128v128h128v128h128v128h-384v-128h-128v-128h-128v384h896v-256h-128v-128h-128v-128h-128v-128h-128v-128h256v128h128v128h128v-384h-896z" />
    <glyph glyph-name="bracketleft" unicode="[" 
d="M256 128v896h512v-128h-256v-640h256v-128h-512z" />
    <glyph glyph-name="backslash" unicode="\" 
d="M768 128v128h-128v128h-128v128h-128v128h-128v128h-128v128h-128v128h256v-128h128v-128h128v-128h128v-128h128v-128h128v-256h-128z" />
    <glyph glyph-name="bracketright" unicode="]" 
d="M256 128v128h256v640h-256v128h512v-896h-512z" />
    <glyph glyph-name="asciicircum" unicode="^" 
d="M0 512v128h128v128h128v128h128v128h128v-128h128v-128h128v-128h128v-128h-256v128h-128v128h-128v-128h-128v-128h-256z" />
    <glyph glyph-name="underscore" unicode="_" 
d="M0 0v128h1024v-128h-1024z" />
    <glyph glyph-name="grave" unicode="`" 
d="M512 640v128h-128v128h-128v128h256v-128h128v-128h128v-128h-256z" />
    <glyph glyph-name="a" unicode="a" 
d="M128 128v128h-128v128h128v128h384v128h-384v128h512v-128h128v-384h128v-128h-256v128h-128v128h-256v-128h256v-128h-384z" />
    <glyph glyph-name="b" unicode="b" 
d="M0 128v128h128v640h-128v128h384v-256h384v-128h128v-384h-128v-128h-384v128h256v384h-256v-384h-128v-128h-256z" />
    <glyph glyph-name="c" unicode="c" 
d="M256 128v128h-128v384h128v128h512v-128h128v-128h-256v128h-256v-384h256v128h256v-128h-128v-128h-512z" />
    <glyph glyph-name="d" unicode="d" 
d="M128 128v128h-128v384h128v128h384v128h-128v128h384v-768h128v-128h-256v128h-128v384h-256v-384h256v-128h-384z" />
    <glyph glyph-name="e" unicode="e" 
d="M640 512v128h-256v-128h256zM256 128v128h-128v384h128v128h512v-128h128v-256h-512v-128h384v-128h-512z" />
    <glyph glyph-name="f" unicode="f" 
d="M128 128v128h128v256h-128v128h128v256h128v128h384v-128h128v-128h-256v128h-128v-256h128v-128h-128v-256h128v-128h-512z" />
    <glyph glyph-name="g" unicode="g" 
d="M640 384v256h-256v-256h256zM128 0v128h512v128h-384v128h-128v256h128v128h640v-640h-128v-128h-640z" />
    <glyph glyph-name="h" unicode="h" 
d="M640 128v512h-128v128h256v-128h128v-512h-256zM0 128v128h128v640h-128v128h384v-384h128v-128h-128v-384h-384z" />
    <glyph glyph-name="i" unicode="i" 
d="M256 128v128h128v384h-128v128h384v-512h128v-128h-512zM384 896v128h256v-128h-256z" />
    <glyph glyph-name="j" unicode="j" 
d="M256 0v128h-128v256h256v-256h256v512h-128v128h384v-640h-128v-128h-512zM640 896v128h256v-128h-256z" />
    <glyph glyph-name="k" unicode="k" 
d="M0 128v128h128v640h-128v128h384v-512h128v128h128v128h256v-128h-128v-128h-128v-128h128v-128h128v-128h-256v128h-128v128h-128v-256h-384z" />
    <glyph glyph-name="l" unicode="l" 
d="M256 128v128h128v640h-128v128h384v-768h128v-128h-512z" />
    <glyph glyph-name="m" unicode="m" 
d="M0 128v512h128v128h256v-128h128v128h256v-128h128v-512h-256v384h-128v-256h-128v256h-128v-384h-256z" />
    <glyph glyph-name="n" unicode="n" 
d="M128 128v512h-128v128h256v-128h128v-512h-256zM640 128v512h-256v128h384v-128h128v-512h-256z" />
    <glyph glyph-name="o" unicode="o" 
d="M640 256v384h-256v-384h256zM256 128v128h-128v384h128v128h512v-128h128v-384h-128v-128h-512z" />
    <glyph glyph-name="p" unicode="p" 
d="M0 0v128h128v512h-128v128h256v-128h128v-256h256v256h-256v128h384v-128h128v-256h-128v-128h-384v-128h128v-128h-512z" />
    <glyph glyph-name="q" unicode="q" 
d="M384 0v128h128v128h-384v128h-128v256h128v128h384v-128h-256v-256h256v256h128v128h256v-128h-128v-512h128v-128h-512z" />
    <glyph glyph-name="r" unicode="r" 
d="M0 128v128h128v384h-128v128h256v-128h128v128h384v-128h128v-128h-256v128h-128v-128h-128v-256h128v-128h-512z" />
    <glyph glyph-name="s" unicode="s" 
d="M128 128v128h512v128h-384v128h-128v128h128v128h512v-128h-384v-128h384v-128h128v-128h-128v-128h-640z" />
    <glyph glyph-name="t" unicode="t" 
d="M384 128v128h-128v384h-128v128h128v256h256v-256h256v-128h-256v-384h128v128h256v-128h-128v-128h-384z" />
    <glyph glyph-name="u" unicode="u" 
d="M256 128v128h-128v512h256v-512h256v512h256v-640h-640z" />
    <glyph glyph-name="v" unicode="v" 
d="M384 128v128h-128v128h-128v384h256v-384h256v384h256v-384h-128v-128h-128v-128h-256z" />
    <glyph glyph-name="w" unicode="w" 
d="M128 128v128h-128v512h256v-384h128v256h128v-256h128v384h256v-512h-128v-128h-256v128h-128v-128h-256z" />
    <glyph glyph-name="x" unicode="x" 
d="M0 128v128h128v128h128v128h-128v128h-128v128h256v-128h128v-128h128v128h128v128h256v-128h-128v-128h-128v-128h128v-128h128v-128h-256v128h-128v128h-128v-128h-128v-128h-256z" />
    <glyph glyph-name="y" unicode="y" 
d="M128 0v128h512v128h-384v128h-128v384h256v-384h256v384h256v-640h-128v-128h-640z" />
    <glyph glyph-name="z" unicode="z" 
d="M128 128v128h128v128h128v128h128v128h-256v-128h-128v256h768v-128h-128v-128h-128v-128h-128v-128h256v128h128v-256h-768z" />
    <glyph glyph-name="braceleft" unicode="{" 
d="M512 128v128h-128v256h-256v128h256v256h128v128h384v-128h-256v-256h-128v-128h128v-256h256v-128h-384z" />
    <glyph glyph-name="bar" unicode="|" 
d="M384 128v896h256v-896h-256z" />
    <glyph glyph-name="braceright" unicode="}" 
d="M128 128v128h256v256h128v128h-128v256h-256v128h384v-128h128v-256h256v-128h-256v-256h-128v-128h-384z" />
    <glyph glyph-name="asciitilde" unicode="~" 
d="M0 768v128h128v128h384v-128h128v128h256v-128h-128v-128h-384v128h-128v-128h-256z" />
    <glyph glyph-name="exclamdown" unicode="&#xa1;" 
d="M384 128v640h256v-640h-256zM384 896v128h256v-128h-256z" />
    <glyph glyph-name="sterling" unicode="&#xa3;" 
d="M0 128v128h128v256h-128v128h128v256h128v128h512v-128h128v-128h-256v128h-256v-256h256v-128h-256v-256h256v128h256v-256h-896z" />
    <glyph glyph-name="section" unicode="&#xa7;" 
d="M512 512v128h-128v-128h128zM0 128v128h384v128h-128v128h-128v128h128v256h128v128h512v-128h-384v-128h128v-128h128v-128h-128v-256h-128v-128h-512z" />
    <glyph glyph-name="dieresis" unicode="&#xa8;" 
d="M128 768v256h256v-256h-256zM640 768v256h256v-256h-256z" />
    <glyph glyph-name="copyright" unicode="&#xa9;" 
d="M256 128v128h384v-128h-384zM128 256v128h128v-128h-128zM640 256v128h128v-128h-128zM0 384v384h128v-384h-128zM256 384v384h384v-128h-256v-128h256v-128h-384zM768 384v384h128v-384h-128zM128 768v128h128v-128h-128zM640 768v128h128v-128h-128zM256 896v128h384
v-128h-384z" />
    <glyph glyph-name="logicalnot" unicode="&#xac;" 
d="M640 256v256h-512v128h768v-384h-256z" />
    <glyph glyph-name="plusminus" unicode="&#xb1;" 
d="M128 128v128h256v256h-256v128h256v256h256v-256h256v-128h-256v-256h256v-128h-768z" />
    <glyph glyph-name="acute" unicode="&#xb4;" 
d="M256 640v128h128v128h128v128h256v-128h-128v-128h-128v-128h-256z" />
    <glyph glyph-name="uni00B5" unicode="&#xb5;" 
d="M128 0v768h256v-384h256v384h256v-384h-128v-128h-384v-256h-256z" />
    <glyph glyph-name="paragraph" unicode="&#xb6;" 
d="M256 128v384h-128v128h-128v256h128v128h768v-128h-128v-768h-128v768h-128v-768h-256z" />
    <glyph glyph-name="periodcentered" unicode="&#xb7;" 
d="M384 384v256h256v-256h-256z" />
    <glyph glyph-name="onequarter" unicode="&#xbc;" 
d="M640 128v128h-256v256h128v-128h128v128h-128v128h128v128h128v-384h128v-128h-128v-128h-128zM128 384v384h-128v128h128v128h128v-640h-128z" />
    <glyph glyph-name="onehalf" unicode="&#xbd;" 
d="M384 128v128h128v128h128v-128h256v-128h-512zM640 384v128h128v-128h-128zM384 512v128h128v-128h-128zM768 512v128h128v-128h-128zM512 640v128h256v-128h-256zM128 384v384h-128v128h128v128h128v-640h-128z" />
    <glyph glyph-name="threequarters" unicode="&#xbe;" 
d="M0 384v128h384v-128h-384zM384 512v128h128v-128h-128zM128 640v128h256v-128h-256zM768 128v128h-256v256h128v-128h128v128h-128v128h128v128h128v-384h128v-128h-128v-128h-128zM384 768v128h128v-128h-128zM0 896v128h384v-128h-384z" />
    <glyph glyph-name="questiondown" unicode="&#xbf;" 
d="M256 128v128h-128v256h128v128h128v128h256v-128h-128v-128h-128v-256h256v256h256v-256h-128v-128h-512zM384 896v128h256v-128h-256z" />
    <glyph glyph-name="divide" unicode="&#xf7;" 
d="M384 128v256h256v-256h-256zM128 512v128h768v-128h-768zM384 768v256h256v-256h-256z" />
    <glyph glyph-name="quoteleft" unicode="&#x2018;" 
d="M384 640v256h128v128h256v-128h-128v-256h-256z" />
    <glyph glyph-name="quoteright" unicode="&#x2019;" 
d="M256 640v128h128v256h256v-256h-128v-128h-256z" />
    <glyph glyph-name="quotedblleft" unicode="&#x201c;" 
d="M128 640v256h128v128h256v-128h-128v-256h-256zM512 640v256h128v128h256v-128h-128v-256h-256z" />
    <glyph glyph-name="quotedblright" unicode="&#x201d;" 
d="M128 640v128h128v256h256v-256h-128v-128h-256zM512 640v128h128v256h256v-256h-128v-128h-256z" />
  </font>
</defs>
</svg>
